<?xml version="1.0" standalone="no"?>
<!DOCTYPE svg PUBLIC "-//W3C//DTD SVG 20010904//EN"
 "http://www.w3.org/TR/2001/REC-SVG-20010904/DTD/svg10.dtd">
<svg version="1.0" xmlns="http://www.w3.org/2000/svg"
 width="700.000000pt" height="700.000000pt" viewBox="0 0 700.000000 700.000000"
 preserveAspectRatio="xMidYMid meet">
<g transform="translate(0.000000,700.000000) scale(0.100000,-0.100000)"
fill="#000000" stroke="none">
<path d="M3377 6734 c-1 -1 -54 -4 -117 -8 -160 -10 -272 -25 -445 -62 -38 -9
-78 -17 -87 -19 -48 -10 -266 -82 -367 -121 -211 -82 -524 -249 -695 -371
-389 -278 -601 -495 -839 -858 -254 -388 -441 -849 -511 -1260 -3 -16 -7 -44
-10 -61 -8 -43 -15 -99 -22 -164 -3 -30 -7 -71 -9 -90 -6 -46 -6 -406 0 -445
2 -16 6 -55 10 -85 7 -72 13 -119 20 -150 2 -14 7 -41 10 -60 8 -46 32 -156
45 -200 68 -239 117 -372 205 -555 112 -233 253 -457 418 -663 132 -165 398
-431 562 -561 110 -88 402 -291 418 -291 2 0 31 -16 63 -35 139 -84 419 -209
599 -266 187 -60 399 -111 520 -124 33 -4 63 -9 66 -11 14 -8 221 -19 374 -18
185 0 353 14 471 38 12 2 38 7 59 10 66 11 277 66 380 100 472 156 939 442
1291 791 473 468 843 1210 929 1865 4 25 8 56 10 70 24 171 24 615 0 742 -3
12 -7 42 -10 67 -4 38 -22 139 -41 226 -2 11 -6 30 -8 42 -10 47 -50 183 -83
283 -149 441 -397 839 -741 1191 -196 200 -353 331 -572 475 -130 85 -128 84
-225 138 -199 110 -314 164 -498 233 -99 36 -319 105 -377 118 -253 53 -374
72 -523 81 -85 5 -267 10 -270 8z m298 -338 c39 -4 113 -14 165 -22 52 -9 109
-18 125 -20 117 -19 417 -111 584 -180 90 -38 261 -121 274 -133 5 -5 -29 -12
-75 -15 -46 -4 -112 -14 -148 -23 -36 -8 -72 -16 -80 -18 -93 -19 -439 -174
-480 -215 -3 -3 -34 -25 -70 -49 -231 -158 -469 -403 -608 -627 -69 -111 -99
-172 -187 -384 -86 -208 -134 -303 -196 -386 l-41 -57 -692 692 -691 691 25
22 c98 88 292 228 441 318 327 197 717 342 1039 386 25 3 54 8 65 10 11 2 56
7 100 10 44 3 81 7 82 8 5 5 303 -2 368 -8z m-1665 -1666 l680 -680 -47 -31
c-27 -17 -145 -78 -263 -136 -118 -57 -255 -125 -305 -150 -401 -205 -728
-538 -933 -948 -70 -141 -142 -369 -163 -517 -7 -49 -16 -88 -19 -88 -6 0
-105 195 -143 281 -206 463 -270 983 -182 1489 18 105 51 251 64 290 5 14 19
59 31 100 48 162 158 412 266 603 80 140 229 359 291 427 13 14 23 28 23 32 0
5 5 8 10 8 6 0 316 -306 690 -680z m4103 28 c80 -152 193 -442 211 -542 2 -11
11 -49 20 -83 15 -57 41 -195 51 -268 26 -194 27 -571 1 -725 -3 -14 -10 -59
-16 -100 -18 -116 -80 -362 -109 -435 -5 -11 -23 -60 -41 -110 -101 -277 -278
-590 -483 -852 -44 -57 -80 -103 -81 -103 -1 0 -318 317 -705 704 l-703 704
55 41 c71 52 193 116 327 170 141 58 130 53 262 115 398 186 767 559 966 979
38 79 97 241 106 289 2 13 9 41 14 63 16 61 30 178 31 270 l1 50 20 -32 c11
-18 44 -79 73 -135z m-707 -3466 c-69 -76 -380 -287 -576 -390 -262 -137 -594
-250 -845 -288 -27 -4 -57 -8 -65 -9 -167 -27 -495 -27 -714 1 -62 8 -276 52
-336 70 -168 49 -199 60 -365 129 -105 44 -329 154 -323 160 2 2 19 7 38 10
19 3 58 10 85 15 28 6 61 12 74 15 86 16 283 86 386 138 271 134 537 346 722
577 137 171 195 272 398 694 48 99 102 203 121 232 l35 53 693 -692 693 -692
-21 -23z"/>
</g>
</svg>
