<svg xmlns="http://www.w3.org/2000/svg" baseProfile="tiny" viewBox="0 0 512 512" overflow="visible"><path fill="none" stroke="#e61e46" stroke-width="24" stroke-miterlimit="10" d="M94.86 99.983c7.956-8.216 70.355-70.684 161.64-68.483 105.727 2.549 225 91.243 225 225 0 88.578-56.103 149.216-65.191 158.386"/><path fill="#d99e82" d="M245.194 397.358c-49.577 49.577-116.872 58.118-153.121 21.868-36.239-36.239-26.248-104.973 21.889-153.11 34.987-34.998 69.985-34.998 96.234-61.246 26.248-26.238 17.499-52.486 56.877-91.864C315.19 64.9 376.426 56.14 415.803 95.507c39.357 39.378 29.533 101.719-17.499 148.741-39.367 39.367-65.616 30.618-91.864 56.856-26.259 26.258-26.259 61.245-61.246 96.254z"/><path d="M150.868 291.801c-3.379 0-6.705-1.637-8.708-4.672a10.43 10.43 0 0 1 2.941-14.454c7.112-4.703 14.996-8.895 23.412-12.441 41.067-15.81 71.977-43.883 80.977-73.385 1.679-5.517 7.519-8.645 13.015-6.935a10.44 10.44 0 0 1 6.945 13.015c-10.835 35.519-46.511 68.713-93.136 86.65-6.935 2.92-13.661 6.497-19.699 10.491-1.773 1.178-3.765 1.731-5.747 1.731zM98.267 385h-.229a10.45 10.45 0 0 1-10.209-10.647c.49-22.567 4.015-51.266 27.124-73.02 4.203-3.932 10.804-3.733 14.746.448 3.952 4.192 3.744 10.793-.438 14.746-17.374 16.341-20.148 38.627-20.565 58.274-.125 5.673-4.776 10.199-10.429 10.199zm43.018-7.394a10.61 10.61 0 0 1-2.597-.323c-5.579-1.429-8.948-7.112-7.519-12.691 5.861-22.849 18.583-55.031 61.267-70.642 5.392-1.961 11.398.803 13.369 6.215 1.981 5.412-.803 11.398-6.215 13.38-33.069 12.087-43.142 36.395-48.232 56.23-1.178 4.703-5.422 7.831-10.073 7.831zm184.239-115.14a10.44 10.44 0 0 1-3.473-20.263c44.623-15.747 71.424-46.396 81.926-93.668 1.251-5.631 6.852-9.114 12.441-7.915 5.621 1.251 9.167 6.82 7.926 12.441-12.034 54.124-44.112 90.738-95.358 108.821-1.137.386-2.315.584-3.462.584zm-5.214-38.679c-4.14 0-8.072-2.503-9.698-6.591a10.43 10.43 0 0 1 5.861-13.536c17.958-7.112 35.227-23.6 42.965-41.036 2.346-5.235 8.478-7.634 13.766-5.298 5.266 2.346 7.623 8.499 5.298 13.766-9.97 22.432-31.306 42.83-54.353 51.954-1.263.511-2.557.741-3.839.741zm-90.822 75.178c-4.119 0-8.009-2.44-9.657-6.487-2.18-5.339.386-11.419 5.715-13.599 9.959-4.067 20.638-14.026 23.631-19.105 2.92-4.964 9.333-6.622 14.277-3.692 4.974 2.92 6.622 9.313 3.692 14.277-5.35 9.104-19.439 22.004-33.715 27.834-1.294.532-2.629.772-3.943.772zm41.714-132.097a10.36 10.36 0 0 1-3.421-.584c-5.444-1.888-8.322-7.832-6.434-13.265 4.171-12.014 12.869-23.516 22.15-29.325a10.43 10.43 0 0 1 14.37 3.316c3.056 4.881 1.564 11.315-3.306 14.37-4.39 2.743-10.606 10.147-13.505 18.479a10.44 10.44 0 0 1-9.854 7.009zM132.577 422.344c-5.11 0-9.563-3.733-10.303-8.937-.667-4.703 0-13.067 1.022-17.634 1.251-5.621 6.872-9.073 12.441-7.915a10.44 10.44 0 0 1 7.915 12.452c-.667 2.983-.939 8.593-.72 10.168a10.44 10.44 0 0 1-8.885 11.774c-.5.061-.99.092-1.47.092z" fill="#c1694f"/><g fill="none" stroke="#e61e46" stroke-width="24" stroke-miterlimit="10"><path d="M416.309 414.886c-8.877 8.957-70.048 68.784-159.809 66.614-116.722-2.822-225-108.998-225-225 0-86.977 54.534-147.403 63.36-156.517"/><path d="M422.5 424.5l-334-334"/></g></svg>